<?xml version="1.0" encoding="UTF-8" standalone="no"?>
<!DOCTYPE svg PUBLIC "-//W3C//DTD SVG 1.1//EN" "http://www.w3.org/Graphics/SVG/1.1/DTD/svg11.dtd">
<svg width="100%" height="100%" viewBox="0 0 1270 400" version="1.1" xmlns="http://www.w3.org/2000/svg" xmlns:xlink="http://www.w3.org/1999/xlink" xml:space="preserve" xmlns:serif="http://www.serif.com/" style="fill-rule:evenodd;clip-rule:evenodd;stroke-linejoin:round;stroke-miterlimit:2;">
    <g transform="matrix(1,0,0,1,-361,-433)">
        <g id="Layer-1" serif:id="Layer 1">
            <g transform="matrix(1,0,0,1,470.127,711.553)">
                <path d="M0,-170.98L0,-86.433L75.865,-86.433C107.57,-86.433 121.158,-107.57 121.158,-128.707C121.158,-149.843 107.193,-170.98 75.865,-170.98L0,-170.98ZM187.737,46.803L124.934,46.803L47.936,-41.518L0,-41.518L0,46.803L-49.822,46.803L-49.822,-217.783C-7.926,-217.783 33.97,-217.406 75.865,-217.406C138.144,-217.028 170.98,-175.509 170.98,-129.839C170.98,-93.605 154.373,-56.993 104.174,-46.802L187.737,46.803Z" style="fill:rgb(229,231,235);fill-rule:nonzero;"/>
            </g>
            <g transform="matrix(1,0,0,1,806.383,685.887)">
                <path d="M0,-42.651C-3.02,-66.807 -21.892,-78.885 -48.313,-78.885C-73.224,-78.885 -93.605,-66.807 -100.399,-42.651L0,-42.651ZM-101.154,-4.529C-98.135,18.495 -78.131,35.102 -45.67,35.102C-28.686,35.102 -6.416,28.686 4.152,17.74L33.592,46.803C13.965,67.184 -18.117,76.998 -46.426,76.998C-110.59,76.998 -148.712,37.367 -148.712,-22.269C-148.712,-78.885 -110.213,-119.649 -49.822,-119.649C12.455,-119.649 51.332,-81.15 44.16,-4.529L-101.154,-4.529Z" style="fill:rgb(229,231,235);fill-rule:nonzero;"/>
            </g>
            <g transform="matrix(1,0,0,1,933.409,712.686)">
                <path d="M0,-173.623L-83.792,-173.623L-83.792,-218.916L133.614,-218.916L133.614,-173.623L49.822,-173.623L49.822,45.293L0,45.293L0,-173.623Z" style="fill:rgb(229,231,235);fill-rule:nonzero;"/>
            </g>
            <g transform="matrix(1,0,0,1,1502.02,592.659)">
                <path d="M0,66.808L78.218,-20.632L20.653,-20.632L-41.896,53.975L-41.896,-98.511L-87.944,-98.511L-87.944,165.319L-41.896,165.319L-41.896,81.151L30.95,165.319L89.676,165.319L0,66.808Z" style="fill:rgb(229,231,235);fill-rule:nonzero;"/>
            </g>
            <g id="Token">
                <g transform="matrix(1,0,0,1,1229.89,827.026)">
                    <path d="M0,-236.292L-150.172,-150.48C-147.955,-142.492 -145.135,-134.754 -141.75,-127.327C-129.523,-100.507 -110.018,-77.711 -85.764,-61.443L-99.575,-24.855L-78.058,-16.731L-65.521,-49.942C-58.026,-46.384 -50.211,-43.396 -42.125,-41.037L-54.638,-7.891L-33.119,0.232L-19.367,-36.196C-12.313,-35.233 -5.116,-34.718 2.203,-34.718C28.687,-34.718 53.644,-41.237 75.572,-52.745C106.604,-69.03 131.562,-95.315 146.156,-127.327C149.514,-134.694 152.312,-142.367 154.52,-150.287L0.403,-236.524L0,-236.292Z" style="fill:rgb(29,78,216);fill-rule:nonzero;"/>
                </g>
                <g transform="matrix(1,0,0,1,1222.62,680.002)">
                    <path d="M0,-36.251C-17.742,-32.962 -31.465,-18.234 -33.22,0L0,0L0,-36.251Z" style="fill:rgb(29,78,216);fill-rule:nonzero;"/>
                </g>
                <g transform="matrix(1,0,0,1,1189.21,726.98)">
                    <path d="M0,-31.978L0,0L33.414,0L33.414,-31.978L0,-31.978Z" style="fill:rgb(29,78,216);fill-rule:nonzero;"/>
                </g>
                <g transform="matrix(1,0,0,1,1270.84,643.751)">
                    <path d="M0,36.251C-1.755,18.017 -15.478,3.288 -33.221,0L-33.221,36.251L0,36.251Z" style="fill:rgb(29,78,216);fill-rule:nonzero;"/>
                </g>
                <g transform="matrix(1,0,0,1,1237.62,695.002)">
                    <path d="M0,31.978L33.415,31.978L33.415,0L0,0L0,31.978Z" style="fill:rgb(29,78,216);fill-rule:nonzero;"/>
                </g>
                <g transform="matrix(1,0,0,1,1385.93,459.09)">
                    <path d="M0,165.475L-123.633,96.295L-11.699,105.766C-24.114,80.371 -43.119,58.786 -66.507,43.261L-52.055,4.977L-73.572,-3.146L-86.785,31.857C-94.295,28.334 -102.134,25.403 -110.23,23.083L-96.992,-11.987L-118.511,-20.11L-133.028,18.349C-139.839,17.452 -146.777,16.963 -153.833,16.963C-180.314,16.963 -205.274,23.479 -227.202,34.985C-232.449,37.739 -237.524,40.774 -242.402,44.079C-284.374,72.51 -311.961,120.579 -311.961,175.092C-311.961,177.748 -311.894,180.389 -311.764,183.014C-311.724,183.822 -311.667,184.624 -311.615,185.429L-156.036,96.528L-155.633,96.295L3.938,185.585C4.017,184.404 4.084,183.22 4.136,182.032C4.233,179.729 4.295,177.416 4.295,175.092C4.295,172.641 4.235,170.204 4.123,167.782L0,165.475Z" style="fill:rgb(29,78,216);fill-rule:nonzero;"/>
                </g>
            </g>
        </g>
    </g>
</svg>
