<svg width="305.13124999999997px" height="124.39999999999999px" xmlns="http://www.w3.org/2000/svg" viewBox="97.43437500000002 12.800000000000004 305.13124999999997 124.39999999999999" style="background: rgba(0, 0, 0, 0);" preserveAspectRatio="xMidYMid"><defs><filter id="editing-hole" x="-100%" y="-100%" width="300%" height="300%"><feFlood flood-color="#000" result="black"></feFlood><feMorphology operator="dilate" radius="2" in="SourceGraphic" result="erode"></feMorphology><feGaussianBlur in="erode" stdDeviation="4" result="blur"></feGaussianBlur><feOffset in="blur" dx="2" dy="2" result="offset"></feOffset><feComposite operator="atop" in="offset" in2="black" result="merge"></feComposite><feComposite operator="in" in="merge" in2="SourceGraphic" result="inner-shadow"></feComposite></filter></defs><g filter="url(#editing-hole)"><g transform="translate(142.19499015808105, 97.78500366210938)"><path d="M4.99 0L4.99-44.80L20.74-44.80L20.74-44.80Q26.82-44.80 29.79-41.09L29.79-41.09L29.79-41.09Q32.77-37.38 32.77-31.10L32.77-31.10L32.77-31.10Q32.77-27.07 32.13-23.84L32.13-23.84L32.13-23.84Q31.49-20.61 28.93-18.14L28.93-18.14L28.93-18.14Q26.37-15.68 21.18-15.68L21.18-15.68L8.58-15.68L8.58 0L4.99 0ZM21.25-19.20L21.25-19.20Q24.83-19.20 26.59-21.12L26.59-21.12L26.59-21.12Q28.35-23.04 28.77-25.47L28.77-25.47L28.77-25.47Q29.18-27.90 29.18-30.91L29.18-30.91L29.18-30.91Q29.18-36.16 27.01-38.78L27.01-38.78L27.01-38.78Q24.83-41.41 20.99-41.41L20.99-41.41L8.58-41.41L8.58-19.20L21.25-19.20ZM38.78 0L38.78-32.06L42.37-32.06L42.18-29.82L42.18-29.82Q45.18-32.64 50.05-32.64L50.05-32.64L50.05-32.64Q51.78-32.64 54.78-32.06L54.78-32.06L53.82-28.80L53.82-28.80Q51.78-29.44 49.54-29.44L49.54-29.44L49.54-29.44Q46.59-29.44 44.48-28.35L44.48-28.35L44.48-28.35Q42.37-27.26 42.37-25.09L42.37-25.09L42.37 0L38.78 0ZM85.06-11.78L85.06-11.78Q85.06-6.40 82.11-2.88L82.11-2.88L82.11-2.88Q79.17 0.64 73.22 0.64L73.22 0.64L73.22 0.64Q67.26 0.64 64.22-2.91L64.22-2.91L64.22-2.91Q61.18-6.46 61.18-11.78L61.18-11.78L61.18-20.22L61.18-20.22Q61.18-26.30 64.29-29.54L64.29-29.54L64.29-29.54Q67.39-32.77 73.22-32.77L73.22-32.77L73.22-32.77Q78.78-32.77 81.92-29.41L81.92-29.41L81.92-29.41Q85.06-26.05 85.06-20.22L85.06-20.22L85.06-11.78ZM81.47-20.22L81.47-20.22Q81.47-25.02 79.26-27.26L79.26-27.26L79.26-27.26Q77.06-29.50 73.22-29.50L73.22-29.50L73.22-29.50Q69.25-29.50 67.01-27.26L67.01-27.26L67.01-27.26Q64.77-25.02 64.77-20.22L64.77-20.22L64.77-11.14L64.77-11.14Q64.77-7.30 67.04-4.93L67.04-4.93L67.04-4.93Q69.31-2.56 73.22-2.56L73.22-2.56L73.22-2.56Q77.18-2.56 79.33-4.90L79.33-4.90L79.33-4.90Q81.47-7.23 81.47-11.14L81.47-11.14L81.47-20.22ZM92.16 0L92.16-44.80L95.74-44.80L95.74 0L92.16 0ZM123.52 0L123.78-3.26L123.78-3.26Q122.24-1.34 119.90-0.32L119.90-0.32L119.90-0.32Q117.57 0.70 115.20 0.70L115.20 0.70L115.20 0.70Q103.17 0.70 103.17-11.01L103.17-11.01L103.17-32.06L106.75-32.06L106.75-10.56L106.75-10.56Q106.75-6.46 109.02-4.48L109.02-4.48L109.02-4.48Q111.30-2.50 115.20-2.50L115.20-2.50L115.20-2.50Q119.04-2.50 121.25-4.45L121.25-4.45L121.25-4.45Q123.46-6.40 123.46-10.56L123.46-10.56L123.46-32.06L127.04-32.06L127.04 0L123.52 0ZM152.38-0.38L152.38-0.38Q148.42 0.64 144.70 0.64L144.70 0.64L144.70 0.64Q141.25 0.64 138.94-0.13L138.94-0.13L138.94-0.13Q135.17-1.41 133.47-4.06L133.47-4.06L133.47-4.06Q131.78-6.72 131.78-11.52L131.78-11.52L131.78-19.71L131.78-19.71Q131.78-26.05 135.10-29.34L135.10-29.34L135.10-29.34Q138.43-32.64 143.68-32.64L143.68-32.64L143.68-32.64Q147.84-32.64 152.26-30.59L152.26-30.59L151.23-27.97L151.23-27.97Q147.58-29.44 144.19-29.44L144.19-29.44L144.19-29.44Q140.22-29.44 137.79-27.17L137.79-27.17L137.79-27.17Q135.36-24.90 135.36-20.10L135.36-20.10L135.36-10.82L135.36-10.82Q135.36-6.40 138.02-4.42L138.02-4.42L138.02-4.42Q140.67-2.43 145.09-2.43L145.09-2.43L145.09-2.43Q147.97-2.43 151.62-3.26L151.62-3.26L152.38-0.38ZM177.66-2.24L177.66-2.24Q175.36-0.77 172.42 0L172.42 0L172.42 0Q169.47 0.77 166.53 0.77L166.53 0.77L166.53 0.77Q161.79 0.77 159.01-1.57L159.01-1.57L159.01-1.57Q156.22-3.90 156.22-8.58L156.22-8.58L156.22-21.70L156.22-21.70Q156.22-26.88 159.46-29.76L159.46-29.76L159.46-29.76Q162.69-32.64 168-32.64L168-32.64L168-32.64Q173.31-32.64 176.29-29.79L176.29-29.79L176.29-29.79Q179.26-26.94 179.26-21.89L179.26-21.89L179.26-13.57L159.81-12.48L159.81-8.58L159.81-8.58Q159.81-5.50 161.79-3.97L161.79-3.97L161.79-3.97Q163.78-2.43 166.98-2.43L166.98-2.43L166.98-2.43Q171.46-2.43 176.26-4.99L176.26-4.99L177.66-2.24ZM175.68-22.34L175.68-22.34Q175.68-26.30 173.18-27.94L173.18-27.94L173.18-27.94Q170.69-29.57 167.94-29.57L167.94-29.57L167.94-29.57Q164.42-29.57 162.11-27.65L162.11-27.65L162.11-27.65Q159.81-25.73 159.81-21.63L159.81-21.63L159.81-16L175.68-16.77L175.68-22.34ZM210.62-11.78L210.62-11.78Q210.62-6.40 207.68-2.88L207.68-2.88L207.68-2.88Q204.74 0.64 198.78 0.64L198.78 0.64L198.78 0.64Q192.83 0.64 189.79-2.91L189.79-2.91L189.79-2.91Q186.75-6.46 186.75-11.78L186.75-11.78L186.75-20.22L186.75-20.22Q186.75-26.30 189.86-29.54L189.86-29.54L189.86-29.54Q192.96-32.77 198.78-32.77L198.78-32.77L198.78-32.77Q204.35-32.77 207.49-29.41L207.49-29.41L207.49-29.41Q210.62-26.05 210.62-20.22L210.62-20.22L210.62-11.78ZM207.04-20.22L207.04-20.22Q207.04-25.02 204.83-27.26L204.83-27.26L204.83-27.26Q202.62-29.50 198.78-29.50L198.78-29.50L198.78-29.50Q194.82-29.50 192.58-27.26L192.58-27.26L192.58-27.26Q190.34-25.02 190.34-20.22L190.34-20.22L190.34-11.14L190.34-11.14Q190.34-7.30 192.61-4.93L192.61-4.93L192.61-4.93Q194.88-2.56 198.78-2.56L198.78-2.56L198.78-2.56Q202.75-2.56 204.90-4.90L204.90-4.90L204.90-4.90Q207.04-7.23 207.04-11.14L207.04-11.14L207.04-20.22Z" fill="#ccc"></path></g></g><style>text {
  font-size: 64px;
  font-family: Arial Black;
  dominant-baseline: central;
  text-anchor: middle;
}</style></svg>